<svg width="197" height="61" viewBox="0 0 197 61" fill="none" xmlns="http://www.w3.org/2000/svg">
<g filter="url(#filter0_d_440_141)">
<path d="M43.0131 40.6159C35.1799 50.8977 25.8806 53 19.3128 53C12.1806 53 4 49.4942 4 35.1226C4 19.8387 8.963 0 27.5637 0C34.0672 0 39.7312 2.59362 39.7312 9.39381C39.7312 13.109 38.4036 15.8376 34.8365 15.8376C34.0781 15.8553 33.3256 15.7006 32.6354 15.3849C31.9453 15.0693 31.3354 14.601 30.8516 14.0152C32.599 13.5239 33.9286 10.0181 33.9286 8.26615C33.9286 7.14453 33.5772 3.28834 29.1083 3.28834C20.5079 3.28834 14.9845 21.0953 14.9845 33.5741C14.9845 42.7584 16.6616 46.6851 24.2236 46.6851C29.6084 46.6851 34.712 44.4419 41.4264 39.9091L43.0131 40.6159Z" fill="white"/>
<path d="M63.5039 15.6523L60.4269 30.2294C60.3301 30.6672 60.2703 31.1125 60.2481 31.5604C60.2481 32.5028 60.6759 33.1895 62.3872 33.1895C64.0984 33.1895 66.3198 30.7871 68.0311 29.4158H69.4872C67.5209 31.3872 62.6884 37.09 59.3523 37.09C56.5746 37.09 54.6926 36.061 54.1302 33.8318C52.8468 35.5898 50.9166 37.3477 48.3156 37.3477C44.2102 37.3477 43.0132 34.4319 43.0132 31.9108C43.0132 24.5367 45.6644 15.7067 54.2166 15.7067C55.2645 15.7295 56.274 16.107 57.0807 16.778L57.3378 15.6624L63.5039 15.6523ZM48.7997 30.7549C48.7997 33.3264 50.2056 33.7996 51.2802 33.7996C52.2623 33.7996 53.2043 32.8552 54.0157 31.655C54.0681 31.1797 54.154 30.7086 54.2728 30.2455L56.6629 18.8742C56.08 18.3728 55.3362 18.099 54.5681 18.103C51.3605 18.101 48.7997 24.9153 48.7997 30.7549Z" fill="white"/>
<path d="M88.4194 30.3753C88.2886 30.8239 88.2164 31.2875 88.2045 31.7547C88.2045 32.7011 88.6785 33.3455 90.3516 33.3455C92.0689 33.3455 92.7136 32.0125 94.4309 30.6351H95.889C93.9147 32.6145 90.6529 37.2621 87.3047 37.2621C83.9565 37.2621 81.9802 35.8002 81.9802 32.5723C81.9888 31.8329 82.075 31.0966 82.2373 30.3753L83.8702 22.6287C83.9522 22.2611 83.9953 21.8858 83.9987 21.5091C83.9987 19.9606 83.1833 18.9699 82.0244 18.9699C80.994 18.9699 80.2167 19.2719 79.3189 19.874L75.6695 37.2621H69.4873L74.0386 15.7379H80.2207L79.7045 18.0617C81.466 16.7709 83.4404 15.7379 85.3283 15.7379C87.6482 15.7379 90.2652 18.2349 90.2652 21.1185C90.2791 21.465 90.2508 21.8119 90.1809 22.1515L88.4194 30.3753Z" fill="white"/>
<path d="M112.578 19.4948C112.578 25.9386 109.322 37.2595 100.999 37.2595C97.8254 37.2595 95.8892 35.8499 95.8892 32.7549C95.8821 32.0477 95.9495 31.3417 96.09 30.6486L99.0566 16.6032H104.99L102.025 30.6425C101.905 31.1436 101.838 31.6558 101.824 32.1709C101.824 32.9563 102.196 33.4939 103.391 33.4939C107.147 33.4939 109.798 25.6627 110.15 20.9447C110.186 20.4755 110.137 18.9511 109.667 18.9531C109.38 18.9531 108.707 18.7639 108.707 17.606C108.707 16.7381 109.045 15.9226 109.951 15.7695C111.684 15.4836 112.578 17.3523 112.578 19.4948Z" fill="white"/>
<path d="M121.657 34.156C123.705 34.156 127.28 34.2688 132.619 29.8085L133.806 30.1045C130.223 34.2688 124.165 37.1745 118.77 37.1745C114.753 37.1745 112.578 34.1137 112.578 30.5052C112.578 25.179 114.838 15.8255 122.452 15.8255C125.88 15.8255 127.807 17.2512 127.807 20.1871C127.807 25.3039 122.325 28.2418 118.351 28.7432C118.273 29.3444 118.232 29.9495 118.226 30.5556C118.226 33.3223 120.024 34.156 121.657 34.156ZM123.832 18.0466C121.488 18.0466 119.564 22.7868 118.686 26.7296C122.534 26.6873 125.254 23.3728 125.296 20.3945C125.296 19.5226 125.087 18.0466 123.832 18.0466Z" fill="white"/>
<path d="M144.503 15.7742L144.033 17.9208C145.573 16.7125 147.285 15.7742 149.082 15.7742C151.008 15.7742 152.161 16.8898 152.163 18.5208C152.163 20.8305 148.902 22.6146 148.95 21.8676C149.116 19.4693 147.745 19.0343 146.467 19.0343C145.19 19.0343 144.499 19.5075 143.515 20.4076L139.964 37.2259H133.806L138.341 15.7742H144.503Z" fill="white"/>
<path d="M162.861 15.7792L162.391 17.9197C163.931 16.7115 165.643 15.7751 167.44 15.7751C169.364 15.7751 170.519 16.8907 170.519 18.5198C170.519 20.8315 167.259 22.6156 167.306 21.8665C167.472 19.4702 166.101 19.0353 164.823 19.0353C163.546 19.0353 162.855 19.5065 161.871 20.4086L158.32 37.2248H152.164L156.699 15.7751L162.861 15.7792Z" fill="white"/>
<path d="M186.615 21.8353C186.866 22.087 187.244 22.2139 187.83 22.2139C189.801 22.2139 190.68 20.7842 192.233 20.1539L192.4 21.0379C191.1 22.675 188.921 24.0584 186.491 24.735C185.687 33.1824 181.124 37.3427 176.932 37.3427C172.447 37.3427 170.519 35.4518 170.519 30.4498C170.519 20.1116 175.759 15.6574 181.544 15.6574C185.527 15.6533 186.531 18.7685 186.615 21.8353ZM183.387 25.1559C182.172 25.1559 181.628 24.2739 181.628 23.265C181.628 22.0447 182.341 20.7419 183.472 20.323C183.345 18.9356 182.885 18.1382 181.71 18.1382C177.772 18.1382 176.087 26.7104 176.087 30.0713C176.087 32.5924 177.26 33.265 178.898 33.265C181.459 33.265 182.885 29.2316 183.387 25.1559Z" fill="white"/>
</g>
<defs>
<filter id="filter0_d_440_141" x="0" y="0" width="196.4" height="61" filterUnits="userSpaceOnUse" color-interpolation-filters="sRGB">
<feFlood flood-opacity="0" result="BackgroundImageFix"/>
<feColorMatrix in="SourceAlpha" type="matrix" values="0 0 0 0 0 0 0 0 0 0 0 0 0 0 0 0 0 0 127 0" result="hardAlpha"/>
<feOffset dy="4"/>
<feGaussianBlur stdDeviation="2"/>
<feComposite in2="hardAlpha" operator="out"/>
<feColorMatrix type="matrix" values="0 0 0 0 0 0 0 0 0 0 0 0 0 0 0 0 0 0 0.25 0"/>
<feBlend mode="normal" in2="BackgroundImageFix" result="effect1_dropShadow_440_141"/>
<feBlend mode="normal" in="SourceGraphic" in2="effect1_dropShadow_440_141" result="shape"/>
</filter>
</defs>
</svg>
